<?xml version="1.0" encoding="UTF-8"?>
<svg width="40px" height="40px" viewBox="0 0 40 40" version="1.1" xmlns="http://www.w3.org/2000/svg" xmlns:xlink="http://www.w3.org/1999/xlink">
    <!-- Generator: Sketch 46.2 (44496) - http://www.bohemiancoding.com/sketch -->
    <title>BBS</title>
    <desc>Created with Sketch.</desc>
    <defs></defs>
    <g id="Page-1" stroke="none" stroke-width="1" fill="none" fill-rule="evenodd">
        <g id="News" transform="translate(-1114.000000, -1334.000000)" fill="#BDBDBD">
            <g id="Group-5" transform="translate(0.000000, 1233.000000)">
                <path d="M1134,141 C1122.9543,141 1114,132.045696 1114,121 C1114,109.954304 1122.9543,101 1134,101 C1145.0457,101 1154,109.954304 1154,121 C1154,132.045696 1145.0457,141 1134,141 Z M1121.58667,115.48 L1121.58667,125 L1126.2,125 C1126.62667,125 1127.04222,124.946667 1127.44667,124.84 C1127.85111,124.733333 1128.21111,124.56889 1128.52667,124.346667 C1128.84222,124.124443 1129.09333,123.83778 1129.28,123.486667 C1129.46667,123.135554 1129.56,122.720002 1129.56,122.24 C1129.56,121.644441 1129.41556,121.135558 1129.12667,120.713333 C1128.83778,120.291109 1128.4,119.995556 1127.81333,119.826667 C1128.24,119.622221 1128.56222,119.360002 1128.78,119.04 C1128.99778,118.719998 1129.10667,118.320002 1129.10667,117.84 C1129.10667,117.395553 1129.03333,117.022224 1128.88667,116.72 C1128.74,116.417776 1128.53333,116.175556 1128.26667,115.993333 C1128,115.81111 1127.68,115.68 1127.30667,115.6 C1126.93333,115.52 1126.52,115.48 1126.06667,115.48 L1121.58667,115.48 Z M1130.97333,115.48 L1130.97333,125 L1135.58667,125 C1136.01334,125 1136.42889,124.946667 1136.83333,124.84 C1137.23778,124.733333 1137.59778,124.56889 1137.91333,124.346667 C1138.22889,124.124443 1138.48,123.83778 1138.66667,123.486667 C1138.85333,123.135554 1138.94667,122.720002 1138.94667,122.24 C1138.94667,121.644441 1138.80222,121.135558 1138.51333,120.713333 C1138.22444,120.291109 1137.78667,119.995556 1137.2,119.826667 C1137.62667,119.622221 1137.94889,119.360002 1138.16667,119.04 C1138.38445,118.719998 1138.49333,118.320002 1138.49333,117.84 C1138.49333,117.395553 1138.42,117.022224 1138.27333,116.72 C1138.12667,116.417776 1137.92,116.175556 1137.65333,115.993333 C1137.38667,115.81111 1137.06667,115.68 1136.69333,115.6 C1136.32,115.52 1135.90667,115.48 1135.45333,115.48 L1130.97333,115.48 Z M1141.78667,121.84 L1139.76,121.84 C1139.75111,122.42667 1139.85778,122.933331 1140.08,123.36 C1140.30222,123.786669 1140.60222,124.137776 1140.98,124.413333 C1141.35778,124.68889 1141.79333,124.89111 1142.28667,125.02 C1142.78,125.14889 1143.28889,125.213333 1143.81333,125.213333 C1144.46223,125.213333 1145.03333,125.137779 1145.52667,124.986667 C1146.02,124.835555 1146.43333,124.624446 1146.76667,124.353333 C1147.1,124.082221 1147.35111,123.760002 1147.52,123.386667 C1147.68889,123.013331 1147.77333,122.608891 1147.77333,122.173333 C1147.77333,121.639997 1147.66,121.202224 1147.43333,120.86 C1147.20667,120.517776 1146.93778,120.244445 1146.62667,120.04 C1146.31555,119.835555 1146.00222,119.686667 1145.68667,119.593333 C1145.37111,119.5 1145.12445,119.435556 1144.94667,119.4 C1144.35111,119.248888 1143.86889,119.124445 1143.5,119.026667 C1143.13111,118.928888 1142.84222,118.831112 1142.63333,118.733333 C1142.42444,118.635555 1142.28444,118.528889 1142.21333,118.413333 C1142.14222,118.297777 1142.10667,118.146668 1142.10667,117.96 C1142.10667,117.755555 1142.15111,117.586667 1142.24,117.453333 C1142.32889,117.319999 1142.44222,117.208889 1142.58,117.12 C1142.71778,117.031111 1142.87111,116.968889 1143.04,116.933333 C1143.20889,116.897778 1143.37778,116.88 1143.54667,116.88 C1143.80445,116.88 1144.04222,116.902222 1144.26,116.946667 C1144.47778,116.991111 1144.67111,117.066666 1144.84,117.173333 C1145.00889,117.280001 1145.14444,117.426666 1145.24667,117.613333 C1145.34889,117.800001 1145.40889,118.035554 1145.42667,118.32 L1147.45333,118.32 C1147.45333,117.768886 1147.34889,117.300002 1147.14,116.913333 C1146.93111,116.526665 1146.64889,116.20889 1146.29333,115.96 C1145.93778,115.71111 1145.53111,115.531112 1145.07333,115.42 C1144.61555,115.308888 1144.13778,115.253333 1143.64,115.253333 C1143.21333,115.253333 1142.78667,115.311111 1142.36,115.426667 C1141.93333,115.542223 1141.55111,115.719999 1141.21333,115.96 C1140.87555,116.200001 1140.60222,116.499998 1140.39333,116.86 C1140.18444,117.220002 1140.08,117.644442 1140.08,118.133333 C1140.08,118.568891 1140.16222,118.939998 1140.32667,119.246667 C1140.49111,119.553335 1140.70667,119.808888 1140.97333,120.013333 C1141.24,120.217779 1141.54222,120.384444 1141.88,120.513333 C1142.21778,120.642223 1142.56444,120.751111 1142.92,120.84 C1143.26667,120.937778 1143.60889,121.026666 1143.94667,121.106667 C1144.28445,121.186667 1144.58667,121.279999 1144.85333,121.386667 C1145.12,121.493334 1145.33555,121.626666 1145.5,121.786667 C1145.66445,121.946667 1145.74667,122.155554 1145.74667,122.413333 C1145.74667,122.653335 1145.68445,122.85111 1145.56,123.006667 C1145.43555,123.162223 1145.28,123.284444 1145.09333,123.373333 C1144.90667,123.462223 1144.70667,123.522222 1144.49333,123.553333 C1144.28,123.584445 1144.08,123.6 1143.89333,123.6 C1143.61778,123.6 1143.35111,123.566667 1143.09333,123.5 C1142.83555,123.433333 1142.61111,123.331112 1142.42,123.193333 C1142.22889,123.055555 1142.07556,122.875557 1141.96,122.653333 C1141.84444,122.43111 1141.78667,122.160002 1141.78667,121.84 Z M1123.68,119.333333 L1123.68,117.106667 L1125.64,117.106667 C1125.82667,117.106667 1126.00667,117.122222 1126.18,117.153333 C1126.35333,117.184445 1126.50667,117.24 1126.64,117.32 C1126.77333,117.4 1126.88,117.51111 1126.96,117.653333 C1127.04,117.795556 1127.08,117.977777 1127.08,118.2 C1127.08,118.600002 1126.96,118.888888 1126.72,119.066667 C1126.48,119.244445 1126.17334,119.333333 1125.8,119.333333 L1123.68,119.333333 Z M1123.68,123.373333 L1123.68,120.76 L1125.96,120.76 C1126.41334,120.76 1126.77778,120.864443 1127.05333,121.073333 C1127.32889,121.282223 1127.46667,121.631109 1127.46667,122.12 C1127.46667,122.36889 1127.42444,122.573333 1127.34,122.733333 C1127.25556,122.893334 1127.14222,123.02 1127,123.113333 C1126.85778,123.206667 1126.69333,123.273333 1126.50667,123.313333 C1126.32,123.353334 1126.12445,123.373333 1125.92,123.373333 L1123.68,123.373333 Z M1133.06667,119.333333 L1133.06667,117.106667 L1135.02667,117.106667 C1135.21333,117.106667 1135.39333,117.122222 1135.56667,117.153333 C1135.74,117.184445 1135.89333,117.24 1136.02667,117.32 C1136.16,117.4 1136.26667,117.51111 1136.34667,117.653333 C1136.42667,117.795556 1136.46667,117.977777 1136.46667,118.2 C1136.46667,118.600002 1136.34667,118.888888 1136.10667,119.066667 C1135.86667,119.244445 1135.56,119.333333 1135.18667,119.333333 L1133.06667,119.333333 Z M1133.06667,123.373333 L1133.06667,120.76 L1135.34667,120.76 C1135.8,120.76 1136.16444,120.864443 1136.44,121.073333 C1136.71556,121.282223 1136.85333,121.631109 1136.85333,122.12 C1136.85333,122.36889 1136.81111,122.573333 1136.72667,122.733333 C1136.64222,122.893334 1136.52889,123.02 1136.38667,123.113333 C1136.24444,123.206667 1136.08,123.273333 1135.89333,123.313333 C1135.70667,123.353334 1135.51111,123.373333 1135.30667,123.373333 L1133.06667,123.373333 Z" id="BBS"></path>
            </g>
        </g>
    </g>
</svg>