<?xml version="1.0" encoding="UTF-8"?>
<svg width="40px" height="40px" viewBox="0 0 40 40" version="1.1" xmlns="http://www.w3.org/2000/svg" xmlns:xlink="http://www.w3.org/1999/xlink">
    <!-- Generator: Sketch 46.2 (44496) - http://www.bohemiancoding.com/sketch -->
    <title>BLOG</title>
    <desc>Created with Sketch.</desc>
    <defs></defs>
    <g id="Page-1" stroke="none" stroke-width="1" fill="none" fill-rule="evenodd">
        <g id="News" transform="translate(-1038.000000, -1334.000000)" fill="#BDBDBD">
            <g id="Group-5" transform="translate(0.000000, 1233.000000)">
                <path d="M1058,141 C1046.9543,141 1038,132.045696 1038,121 C1038,109.954304 1046.9543,101 1058,101 C1069.0457,101 1078,109.954304 1078,121 C1078,132.045696 1069.0457,141 1058,141 Z M1045.58667,114.813333 L1045.58667,124.333333 L1050.2,124.333333 C1050.62667,124.333333 1051.04222,124.280001 1051.44667,124.173333 C1051.85111,124.066666 1052.21111,123.902223 1052.52667,123.68 C1052.84222,123.457777 1053.09333,123.171113 1053.28,122.82 C1053.46667,122.468887 1053.56,122.053336 1053.56,121.573333 C1053.56,120.977775 1053.41556,120.468891 1053.12667,120.046667 C1052.83778,119.624442 1052.4,119.32889 1051.81333,119.16 C1052.24,118.955555 1052.56222,118.693335 1052.78,118.373333 C1052.99778,118.053332 1053.10667,117.653336 1053.10667,117.173333 C1053.10667,116.728887 1053.03333,116.355557 1052.88667,116.053333 C1052.74,115.75111 1052.53333,115.50889 1052.26667,115.326667 C1052,115.144444 1051.68,115.013334 1051.30667,114.933333 C1050.93333,114.853333 1050.52,114.813333 1050.06667,114.813333 L1045.58667,114.813333 Z M1054.82667,114.813333 L1054.82667,124.333333 L1056.72,124.333333 L1056.72,114.813333 L1054.82667,114.813333 Z M1058,120.893333 C1058,121.444447 1058.08444,121.94222 1058.25333,122.386667 C1058.42222,122.831113 1058.66222,123.21111 1058.97333,123.526667 C1059.28445,123.842224 1059.65778,124.084444 1060.09333,124.253333 C1060.52889,124.422223 1061.01778,124.506667 1061.56,124.506667 C1062.10222,124.506667 1062.59333,124.422223 1063.03333,124.253333 C1063.47334,124.084444 1063.84889,123.842224 1064.16,123.526667 C1064.47111,123.21111 1064.71111,122.831113 1064.88,122.386667 C1065.04889,121.94222 1065.13333,121.444447 1065.13333,120.893333 C1065.13333,120.342219 1065.04889,119.842224 1064.88,119.393333 C1064.71111,118.944442 1064.47111,118.562224 1064.16,118.246667 C1063.84889,117.93111 1063.47334,117.686668 1063.03333,117.513333 C1062.59333,117.339999 1062.10222,117.253333 1061.56,117.253333 C1061.01778,117.253333 1060.52889,117.339999 1060.09333,117.513333 C1059.65778,117.686668 1059.28445,117.93111 1058.97333,118.246667 C1058.66222,118.562224 1058.42222,118.944442 1058.25333,119.393333 C1058.08444,119.842224 1058,120.342219 1058,120.893333 Z M1072.98667,123.893333 L1072.98667,117.44 L1071.18667,117.44 L1071.18667,118.36 L1071.16,118.36 C1070.92889,117.959998 1070.64222,117.675556 1070.3,117.506667 C1069.95778,117.337777 1069.56,117.253333 1069.10667,117.253333 C1068.62666,117.253333 1068.20222,117.346666 1067.83333,117.533333 C1067.46444,117.720001 1067.15556,117.97111 1066.90667,118.286667 C1066.65778,118.602224 1066.46889,118.966665 1066.34,119.38 C1066.21111,119.793335 1066.14667,120.22222 1066.14667,120.666667 C1066.14667,121.13778 1066.20222,121.584442 1066.31333,122.006667 C1066.42445,122.428891 1066.6,122.797776 1066.84,123.113333 C1067.08,123.42889 1067.38666,123.677777 1067.76,123.86 C1068.13334,124.042223 1068.57778,124.133333 1069.09333,124.133333 C1069.51111,124.133333 1069.90889,124.046668 1070.28667,123.873333 C1070.66445,123.699999 1070.95555,123.431113 1071.16,123.066667 L1071.18667,123.066667 L1071.18667,123.973333 C1071.19556,124.462225 1071.07778,124.866665 1070.83333,125.186667 C1070.58889,125.506668 1070.2,125.666667 1069.66667,125.666667 C1069.32889,125.666667 1069.03111,125.597778 1068.77333,125.46 C1068.51555,125.322222 1068.34222,125.075557 1068.25333,124.72 L1066.37333,124.72 C1066.4,125.111113 1066.50889,125.446665 1066.7,125.726667 C1066.89111,126.006668 1067.13111,126.235555 1067.42,126.413333 C1067.70889,126.591112 1068.02889,126.722222 1068.38,126.806667 C1068.73111,126.891112 1069.07555,126.933333 1069.41333,126.933333 C1070.20445,126.933333 1070.83555,126.826668 1071.30667,126.613333 C1071.77778,126.399999 1072.13778,126.140002 1072.38667,125.833333 C1072.63556,125.526665 1072.79778,125.195557 1072.87333,124.84 C1072.94889,124.484443 1072.98667,124.16889 1072.98667,123.893333 Z M1047.68,118.666667 L1047.68,116.44 L1049.64,116.44 C1049.82667,116.44 1050.00667,116.455555 1050.18,116.486667 C1050.35333,116.517778 1050.50667,116.573333 1050.64,116.653333 C1050.77333,116.733334 1050.88,116.844444 1050.96,116.986667 C1051.04,117.12889 1051.08,117.31111 1051.08,117.533333 C1051.08,117.933335 1050.96,118.222221 1050.72,118.4 C1050.48,118.577779 1050.17334,118.666667 1049.8,118.666667 L1047.68,118.666667 Z M1047.68,122.706667 L1047.68,120.093333 L1049.96,120.093333 C1050.41334,120.093333 1050.77778,120.197777 1051.05333,120.406667 C1051.32889,120.615557 1051.46667,120.964442 1051.46667,121.453333 C1051.46667,121.702223 1051.42444,121.906666 1051.34,122.066667 C1051.25556,122.226667 1051.14222,122.353333 1051,122.446667 C1050.85778,122.54 1050.69333,122.606666 1050.50667,122.646667 C1050.32,122.686667 1050.12445,122.706667 1049.92,122.706667 L1047.68,122.706667 Z M1069.57333,122.706667 C1069.28,122.706667 1069.03556,122.644445 1068.84,122.52 C1068.64444,122.395555 1068.48667,122.235557 1068.36667,122.04 C1068.24667,121.844443 1068.16222,121.624446 1068.11333,121.38 C1068.06444,121.135554 1068.04,120.88889 1068.04,120.64 C1068.04,120.382221 1068.06889,120.135557 1068.12667,119.9 C1068.18444,119.664443 1068.27778,119.455556 1068.40667,119.273333 C1068.53556,119.09111 1068.69555,118.946667 1068.88667,118.84 C1069.07778,118.733333 1069.30667,118.68 1069.57333,118.68 C1069.88445,118.68 1070.14222,118.737777 1070.34667,118.853333 C1070.55111,118.968889 1070.71555,119.124443 1070.84,119.32 C1070.96445,119.515557 1071.05333,119.739999 1071.10667,119.993333 C1071.16,120.246668 1071.18667,120.515554 1071.18667,120.8 C1071.18667,121.04889 1071.15333,121.286666 1071.08667,121.513333 C1071.02,121.740001 1070.92,121.942221 1070.78667,122.12 C1070.65333,122.297779 1070.48445,122.439999 1070.28,122.546667 C1070.07555,122.653334 1069.84,122.706667 1069.57333,122.706667 Z M1059.89333,120.893333 C1059.89333,120.617776 1059.92,120.346668 1059.97333,120.08 C1060.02667,119.813332 1060.11778,119.577779 1060.24667,119.373333 C1060.37556,119.168888 1060.54667,119.002223 1060.76,118.873333 C1060.97333,118.744444 1061.24,118.68 1061.56,118.68 C1061.88,118.68 1062.14889,118.744444 1062.36667,118.873333 C1062.58445,119.002223 1062.75778,119.168888 1062.88667,119.373333 C1063.01556,119.577779 1063.10667,119.813332 1063.16,120.08 C1063.21333,120.346668 1063.24,120.617776 1063.24,120.893333 C1063.24,121.16889 1063.21333,121.437776 1063.16,121.7 C1063.10667,121.962224 1063.01556,122.197777 1062.88667,122.406667 C1062.75778,122.615557 1062.58445,122.782222 1062.36667,122.906667 C1062.14889,123.031112 1061.88,123.093333 1061.56,123.093333 C1061.24,123.093333 1060.97333,123.031112 1060.76,122.906667 C1060.54667,122.782222 1060.37556,122.615557 1060.24667,122.406667 C1060.11778,122.197777 1060.02667,121.962224 1059.97333,121.7 C1059.92,121.437776 1059.89333,121.16889 1059.89333,120.893333 Z" id="BLOG"></path>
            </g>
        </g>
    </g>
</svg>