<?xml version="1.0" encoding="UTF-8"?>
<svg width="40px" height="40px" viewBox="0 0 40 40" version="1.1" xmlns="http://www.w3.org/2000/svg" xmlns:xlink="http://www.w3.org/1999/xlink">
    <!-- Generator: Sketch 46.2 (44496) - http://www.bohemiancoding.com/sketch -->
    <title>Facebook</title>
    <desc>Created with Sketch.</desc>
    <defs></defs>
    <g id="Page-1" stroke="none" stroke-width="1" fill="none" fill-rule="evenodd">
        <g id="News" transform="translate(-886.000000, -1334.000000)" fill="#BDBDBD">
            <g id="Group-5" transform="translate(0.000000, 1233.000000)">
                <path d="M906,141 C894.954304,141 886,132.045696 886,121 C886,109.954304 894.954304,101 906,101 C917.045696,101 926,109.954304 926,121 C926,132.045696 917.045696,141 906,141 Z M903.176811,131.879782 L907.672383,131.879782 L907.672383,120.998726 L910.671697,120.998726 L911.06917,117.249054 L907.672383,117.249054 L907.677479,115.372307 C907.677479,114.394335 907.770266,113.870315 909.172889,113.870315 L911.047938,113.870315 L911.047938,110.120218 L908.0482,110.120218 C904.445033,110.120218 903.176811,111.939212 903.176811,114.998189 L903.176811,117.249479 L900.93083,117.249479 L900.93083,120.999151 L903.176811,120.999151 L903.176811,131.879782 Z" id="Facebook"></path>
            </g>
        </g>
    </g>
</svg>