<?xml version="1.0" encoding="UTF-8"?>
<svg width="40px" height="40px" viewBox="0 0 40 40" version="1.1" xmlns="http://www.w3.org/2000/svg" xmlns:xlink="http://www.w3.org/1999/xlink">
    <!-- Generator: Sketch 46.2 (44496) - http://www.bohemiancoding.com/sketch -->
    <title>Combined Shape</title>
    <desc>Created with Sketch.</desc>
    <defs></defs>
    <g id="Page-1" stroke="none" stroke-width="1" fill="none" fill-rule="evenodd">
        <g id="News" transform="translate(-1190.000000, -1334.000000)" fill="#BDBDBD">
            <g id="Group-5" transform="translate(0.000000, 1233.000000)">
                <path d="M1205.01435,125.061492 L1201.86262,126.146719 C1200.81823,126.506331 1200.2631,127.644501 1200.62272,128.688892 C1200.98233,129.733283 1202.1205,130.288406 1203.16489,129.928793 L1206.31662,128.843566 L1207.61889,132.62564 C1207.9785,133.670031 1209.11667,134.225154 1210.16106,133.865541 C1211.20546,133.505928 1211.76058,132.367758 1211.40097,131.323368 L1211.40097,131.323368 L1210.09869,127.541293 L1214.51111,126.021975 L1215.81339,129.804049 C1216.173,130.84844 1217.31117,131.403563 1218.35556,131.04395 C1219.39995,130.684338 1219.95507,129.546168 1219.59546,128.501777 L1219.59546,128.501777 L1218.29319,124.719703 L1222.07526,123.41743 C1223.11965,123.057817 1223.67477,121.919647 1223.31516,120.875256 C1222.95555,119.830865 1221.81738,119.275743 1220.77299,119.635356 L1220.77299,119.635356 L1216.99091,120.937628 L1215.4716,116.525208 L1219.25367,115.222936 C1220.29806,114.863323 1220.85318,113.725153 1220.49357,112.680762 C1220.13396,111.636371 1218.99579,111.081249 1217.9514,111.440861 L1217.9514,111.440861 L1214.16932,112.743134 L1213.0841,109.591405 C1212.72448,108.547014 1211.58631,107.991892 1210.54192,108.351504 L1210.54192,108.351504 L1210.54192,108.351504 C1209.49753,108.711117 1208.94241,109.849287 1209.30202,110.893678 L1210.38725,114.045407 L1205.97483,115.564725 L1204.8896,112.412996 C1204.52999,111.368605 1203.39182,110.813482 1202.34743,111.173095 C1201.30304,111.532708 1200.74792,112.670878 1201.10753,113.715269 L1202.19276,116.866997 L1199.04103,117.952224 C1197.99664,118.311837 1197.44151,119.450007 1197.80113,120.494398 C1198.16074,121.538789 1199.29891,122.093911 1200.3433,121.734299 L1203.49503,120.649071 L1205.01435,125.061492 Z M1208.79642,123.759219 L1207.2771,119.346799 L1211.68952,117.827481 L1213.20884,122.239901 L1208.79642,123.759219 Z M1210,141 C1198.9543,141 1190,132.045696 1190,121 C1190,109.954304 1198.9543,101 1210,101 C1221.0457,101 1230,109.954304 1230,121 C1230,132.045696 1221.0457,141 1210,141 Z" id="Combined-Shape"></path>
            </g>
        </g>
    </g>
</svg>