<?xml version="1.0" encoding="UTF-8"?>
<svg width="40px" height="40px" viewBox="0 0 40 40" version="1.1" xmlns="http://www.w3.org/2000/svg" xmlns:xlink="http://www.w3.org/1999/xlink">
    <!-- Generator: Sketch 46.2 (44496) - http://www.bohemiancoding.com/sketch -->
    <title>Twitter</title>
    <desc>Created with Sketch.</desc>
    <defs></defs>
    <g id="Page-1" stroke="none" stroke-width="1" fill="none" fill-rule="evenodd">
        <g id="News" transform="translate(-810.000000, -1334.000000)" fill="#BDBDBD">
            <g id="Group-5" transform="translate(0.000000, 1233.000000)">
                <path d="M830,141 C818.954304,141 810,132.045696 810,121 C810,109.954304 818.954304,101 830,101 C841.045696,101 850,109.954304 850,121 C850,132.045696 841.045696,141 830,141 Z M832.778136,113.18872 C831.031961,113.824272 829.928379,115.462583 830.054103,117.256251 L830.096011,117.948296 L829.397541,117.863555 C826.855111,117.538718 824.633976,116.437095 822.748107,114.586934 L821.826127,113.668915 L821.588647,114.346836 C821.085749,115.858037 821.407045,117.453978 822.45475,118.527354 C823.013526,119.120535 822.887801,119.205276 821.923913,118.852191 C821.588647,118.739204 821.29529,118.654464 821.267351,118.696834 C821.169565,118.795698 821.504831,120.080924 821.770249,120.589366 C822.133454,121.295534 822.873832,121.987579 823.684057,122.397157 L824.368558,122.721995 L823.558332,122.736118 C822.776046,122.736118 822.748107,122.750241 822.831924,123.046832 C823.111312,123.964851 824.214894,124.939364 825.444201,125.363065 L826.310304,125.659656 L825.555957,126.111603 C824.438405,126.761278 823.125281,127.128486 821.812157,127.156733 C821.183534,127.170856 820.666667,127.22735 820.666667,127.26972 C820.666667,127.410953 822.370933,128.201862 823.362761,128.512576 C826.338243,129.430595 829.872501,129.035141 832.526687,127.467447 C834.412556,126.351701 836.298425,124.134332 837.178497,121.987579 C837.653457,120.843586 838.128416,118.753328 838.128416,117.750568 C838.128416,117.100893 838.170324,117.016153 838.952611,116.239368 C839.413601,115.78742 839.846652,115.293102 839.930469,115.151868 C840.070163,114.883524 840.056193,114.883524 839.343754,115.123622 C838.156355,115.547323 837.988722,115.490829 838.575437,114.855278 C839.008488,114.40333 839.525356,113.584174 839.525356,113.344077 C839.525356,113.301707 839.315815,113.372324 839.078335,113.499434 C838.826886,113.640668 838.26811,113.852518 837.849028,113.979629 L837.094681,114.219726 L836.41018,113.753655 C836.033006,113.499434 835.502169,113.216967 835.222781,113.132227 C834.510342,112.934499 833.420728,112.962746 832.778136,113.18872 Z" id="Twitter"></path>
            </g>
        </g>
    </g>
</svg>